<svg xmlns="http://www.w3.org/2000/svg" xmlns:xlink="http://www.w3.org/1999/xlink" width="400" height="275"><path d="M15,70 L367,70" style="stroke: #C0C0C0; stroke-width: 1; fill: none;"/><path d="M15,25 L367,25" style="stroke: #C0C0C0; stroke-width: 1; fill: none;"/><path d="M15,61 L367,61" style="stroke: #C0C0C0; stroke-width: 1; fill: none;"/><path d="M15,94 L367,94" style="stroke: #C0C0C0; stroke-width: 1; fill: none;"/><path d="M15,73 L367,73" style="stroke: #C0C0C0; stroke-width: 1; fill: none;"/><path d="M15,85 L367,85" style="stroke: #C0C0C0; stroke-width: 1; fill: none;"/><path d="M15,86 L367,86" style="stroke: #C0C0C0; stroke-width: 1; fill: none;"/><path d="M15,42 L367,42" style="stroke: #C0C0C0; stroke-width: 1; fill: none;"/><path d="M15,61 L367,61" style="stroke: #C0C0C0; stroke-width: 1; fill: none;"/><path d="M15,85 L367,85" style="stroke: #C0C0C0; stroke-width: 1; fill: none;"/><path d="M15,49 L367,49" style="stroke: #C0C0C0; stroke-width: 1; fill: none;"/><path d="M15,70 L367,70" style="stroke: #C0C0C0; stroke-width: 1; fill: none;"/><path d="M15,85 L367,85" style="stroke: #C0C0C0; stroke-width: 1; fill: none;"/><path d="M15,49 L367,49" style="stroke: #C0C0C0; stroke-width: 1; fill: none;"/><path d="M15,70 L367,70" style="stroke: #C0C0C0; stroke-width: 1; fill: none;"/><path d="M15,25 L367,25" style="stroke: #607080; stroke-width: 1; fill: none;"/><text x="375" y="30" style="font-family: Arial; font-size:12px; stroke: #607080;">100</text><path d="M15,105 L367,105" style="stroke: #607080; stroke-width: 1; fill: none;"/><text x="375" y="110" style="font-family: Arial; font-size:12px; stroke: #607080;">0</text><path d="M15,25 L15,105" style="stroke: #607080; stroke-width: 1; fill: none;"/><path d="M103,25 L103,105" style="stroke: #607080; stroke-width: 1; fill: none;"/><path d="M191,25 L191,105" style="stroke: #607080; stroke-width: 1; fill: none;"/><path d="M279,25 L279,105" style="stroke: #607080; stroke-width: 1; fill: none;"/><path d="M367,25 L367,105" style="stroke: #607080; stroke-width: 1; fill: none;"/><circle cx="15" cy="10" r="8" style="fill:#000000"/><text x="15" y="14" style="font-family: Arial; font-size:10px; fill: #FFFFFF; stroke: #FFFFFF;" text-anchor="middle">1</text><circle cx="103" cy="10" r="8" style="fill:#000000"/><text x="103" y="14" style="font-family: Arial; font-size:10px; fill: #FFFFFF; stroke: #FFFFFF;" text-anchor="middle">2</text><circle cx="191" cy="10" r="8" style="fill:#000000"/><text x="191" y="14" style="font-family: Arial; font-size:10px; fill: #FFFFFF; stroke: #FFFFFF;" text-anchor="middle">3</text><circle cx="279" cy="10" r="8" style="fill:#000000"/><text x="279" y="14" style="font-family: Arial; font-size:10px; fill: #FFFFFF; stroke: #FFFFFF;" text-anchor="middle">4</text><circle cx="367" cy="10" r="8" style="fill:#000000"/><text x="367" y="14" style="font-family: Arial; font-size:10px; fill: #FFFFFF; stroke: #FFFFFF;" text-anchor="middle">5</text><path d="M15,25 L103,73 L191,42 L279,49 L367,49 " style="stroke: #974d57; stroke-width: 2; fill: none;"/><circle cx="15" cy="25" r="4" style="fill:#974d57"/><circle cx="103" cy="73" r="4" style="fill:#974d57"/><circle cx="191" cy="42" r="4" style="fill:#974d57"/><circle cx="279" cy="49" r="4" style="fill:#974d57"/><circle cx="367" cy="49" r="4" style="fill:#974d57"/><path d="M15,70 L103,94 L191,86 L279,85 L367,85 " style="stroke: #448541; stroke-width: 2; fill: none;"/><circle cx="15" cy="70" r="4" style="fill:#448541"/><circle cx="103" cy="94" r="4" style="fill:#448541"/><circle cx="191" cy="86" r="4" style="fill:#448541"/><circle cx="279" cy="85" r="4" style="fill:#448541"/><circle cx="367" cy="85" r="4" style="fill:#448541"/><path d="M15,61 L103,85 L191,61 L279,70 L367,70 " style="stroke: #0000FF; stroke-width: 2; fill: none;"/><circle cx="15" cy="61" r="4" style="fill:#0000FF"/><circle cx="103" cy="85" r="4" style="fill:#0000FF"/><circle cx="191" cy="61" r="4" style="fill:#0000FF"/><circle cx="279" cy="70" r="4" style="fill:#0000FF"/><circle cx="367" cy="70" r="4" style="fill:#0000FF"/><rect x="0" y="150" width="400" height="20" style="stroke-width: 0; fill: #F0F0F0;" /><rect x="0" y="190" width="400" height="20" style="stroke-width: 0; fill: #F0F0F0;" /><rect x="0" y="125" rx="10" ry="10" width="400" height="140" style="stroke: #C0C0C0; fill: none;" /><rect x="248" y="130" rx="5" ry="5" width="40" height="20" style="stroke: #009900; stroke-width: 1; fill: none;" /><text x="0" y="145" style="font-family: Arial; font-size:12px;"><tspan x="5" style="font-weight: bold;">1.</tspan><tspan x="22">2011.08.15</tspan><tspan x="90">DealTicker</tspan><tspan x="200" style="fill: #974d57">100</tspan><tspan x="240">-</tspan><tspan x="250" style="fill: #0000FF">56</tspan><tspan x="290">=</tspan><tspan x="300" style="fill: #448541">44</tspan><tspan x="350" style="fill: #0000FF">(56%)</tspan></text><rect x="298" y="150" rx="5" ry="5" width="40" height="20" style="stroke: #009900; stroke-width: 1; fill: none;" /><text x="0" y="165" style="font-family: Arial; font-size:12px;"><tspan x="5" style="font-weight: bold;">2.</tspan><tspan x="22">2011.08.19</tspan><tspan x="90">DealTicker</tspan><tspan x="200" style="fill: #974d57">40</tspan><tspan x="240">-</tspan><tspan x="250" style="fill: #0000FF">26</tspan><tspan x="290">=</tspan><tspan x="300" style="fill: #448541">14</tspan><tspan x="350" style="fill: #0000FF">(65%)</tspan></text><rect x="348" y="170" rx="5" ry="5" width="40" height="20" style="stroke: #009900; stroke-width: 1; fill: none;" /><text x="0" y="185" style="font-family: Arial; font-size:12px;"><tspan x="5" style="font-weight: bold;">3.</tspan><tspan x="22">2011.09.09</tspan><tspan x="90">DealTicker</tspan><tspan x="200" style="fill: #974d57">79.99</tspan><tspan x="240">-</tspan><tspan x="250" style="fill: #0000FF">55.99</tspan><tspan x="290">=</tspan><tspan x="300" style="fill: #448541">24</tspan><tspan x="350" style="fill: #0000FF">(69%)</tspan></text><text x="0" y="205" style="font-family: Arial; font-size:12px;"><tspan x="5" style="font-weight: bold;">4.</tspan><tspan x="22">2011.09.23</tspan><tspan x="90">DealTicker</tspan><tspan x="200" style="fill: #974d57">70</tspan><tspan x="240">-</tspan><tspan x="250" style="fill: #0000FF">44</tspan><tspan x="290">=</tspan><tspan x="300" style="fill: #448541">26</tspan><tspan x="350" style="fill: #0000FF">(62%)</tspan></text><text x="0" y="225" style="font-family: Arial; font-size:12px;"><tspan x="5" style="font-weight: bold;">5.</tspan><tspan x="22">2011.09.23</tspan><tspan x="90">DealTicker</tspan><tspan x="200" style="fill: #974d57">70</tspan><tspan x="240">-</tspan><tspan x="250" style="fill: #0000FF">44</tspan><tspan x="290">=</tspan><tspan x="300" style="fill: #448541">26</tspan><tspan x="350" style="fill: #0000FF">(62%)</tspan></text><line x1="0" y1="235" x2="400" y2="235" style="stroke: #C0C0C0;" /><text x="0" y="255" style="font-family: Arial; font-size:12px; font-weight: bold;"><tspan x="20" style="font-weight: bold;">=</tspan><tspan x="200" style="fill: #974d57">71</tspan><tspan x="240">-</tspan><tspan x="250" style="fill: #0000FF">45</tspan><tspan x="290">=</tspan><tspan x="300" style="fill: #448541">26</tspan><tspan x="350" style="fill: #0000FF">(63%)</tspan></text><image width="11" height="12" x="5" y="243" xlink:href="/IF/Avg.png" /></svg>