<svg xmlns="http://www.w3.org/2000/svg" xmlns:xlink="http://www.w3.org/1999/xlink" width="400" height="215"><path d="M15,66 L370,66" style="stroke: #C0C0C0; stroke-width: 1; fill: none;"/><path d="M15,25 L370,25" style="stroke: #C0C0C0; stroke-width: 1; fill: none;"/><path d="M15,65 L370,65" style="stroke: #C0C0C0; stroke-width: 1; fill: none;"/><path d="M15,76 L370,76" style="stroke: #C0C0C0; stroke-width: 1; fill: none;"/><path d="M15,45 L370,45" style="stroke: #C0C0C0; stroke-width: 1; fill: none;"/><path d="M15,75 L370,75" style="stroke: #C0C0C0; stroke-width: 1; fill: none;"/><path d="M15,25 L370,25" style="stroke: #607080; stroke-width: 1; fill: none;"/><text x="375" y="30" style="font-family: Arial; font-size:12px; stroke: #607080;">65</text><path d="M15,105 L370,105" style="stroke: #607080; stroke-width: 1; fill: none;"/><text x="375" y="110" style="font-family: Arial; font-size:12px; stroke: #607080;">0</text><path d="M15,25 L15,105" style="stroke: #607080; stroke-width: 1; fill: none;"/><path d="M370,25 L370,105" style="stroke: #607080; stroke-width: 1; fill: none;"/><circle cx="15" cy="10" r="8" style="fill:#000000"/><text x="15" y="14" style="font-family: Arial; font-size:10px; fill: #FFFFFF; stroke: #FFFFFF;" text-anchor="middle">1</text><circle cx="370" cy="10" r="8" style="fill:#000000"/><text x="370" y="14" style="font-family: Arial; font-size:10px; fill: #FFFFFF; stroke: #FFFFFF;" text-anchor="middle">2</text><path d="M15,25 L370,45 " style="stroke: #974d57; stroke-width: 2; fill: none;"/><circle cx="15" cy="25" r="4" style="fill:#974d57"/><circle cx="370" cy="45" r="4" style="fill:#974d57"/><path d="M15,66 L370,76 " style="stroke: #448541; stroke-width: 2; fill: none;"/><circle cx="15" cy="66" r="4" style="fill:#448541"/><circle cx="370" cy="76" r="4" style="fill:#448541"/><path d="M15,65 L370,75 " style="stroke: #0000FF; stroke-width: 2; fill: none;"/><circle cx="15" cy="65" r="4" style="fill:#0000FF"/><circle cx="370" cy="75" r="4" style="fill:#0000FF"/><rect x="0" y="150" width="400" height="20" style="stroke-width: 0; fill: #F0F0F0;" /><rect x="0" y="125" rx="10" ry="10" width="400" height="80" style="stroke: #C0C0C0; fill: none;" /><rect x="248" y="130" rx="5" ry="5" width="40" height="20" style="stroke: #009900; stroke-width: 1; fill: none;" /><text x="0" y="145" style="font-family: Arial; font-size:12px;"><tspan x="5" style="font-weight: bold;">1.</tspan><tspan x="22">2011.09.29</tspan><tspan x="90">WagJag</tspan><tspan x="200" style="fill: #974d57">65</tspan><tspan x="240">-</tspan><tspan x="250" style="fill: #0000FF">33</tspan><tspan x="290">=</tspan><tspan x="300" style="fill: #448541">32</tspan><tspan x="350" style="fill: #0000FF">(50%)</tspan></text><rect x="298" y="150" rx="5" ry="5" width="40" height="20" style="stroke: #009900; stroke-width: 1; fill: none;" /><rect x="348" y="150" rx="5" ry="5" width="40" height="20" style="stroke: #009900; stroke-width: 1; fill: none;" /><text x="0" y="165" style="font-family: Arial; font-size:12px;"><tspan x="5" style="font-weight: bold;">2.</tspan><tspan x="22">2011.09.30</tspan><tspan x="90">WagJag</tspan><tspan x="200" style="fill: #974d57">49</tspan><tspan x="240">-</tspan><tspan x="250" style="fill: #0000FF">25</tspan><tspan x="290">=</tspan><tspan x="300" style="fill: #448541">24</tspan><tspan x="350" style="fill: #0000FF">(51%)</tspan></text><line x1="0" y1="175" x2="400" y2="175" style="stroke: #C0C0C0;" /><text x="0" y="195" style="font-family: Arial; font-size:12px; font-weight: bold;"><tspan x="20" style="font-weight: bold;">=</tspan><tspan x="200" style="fill: #974d57">57</tspan><tspan x="240">-</tspan><tspan x="250" style="fill: #0000FF">29</tspan><tspan x="290">=</tspan><tspan x="300" style="fill: #448541">28</tspan><tspan x="350" style="fill: #0000FF">(50%)</tspan></text><image width="11" height="12" x="5" y="183" xlink:href="/IF/Avg.png" /></svg>