<svg xmlns="http://www.w3.org/2000/svg" xmlns:xlink="http://www.w3.org/1999/xlink" width="400" height="295"><path d="M15,96 L370,96" style="stroke: #C0C0C0; stroke-width: 1; fill: none;"/><path d="M15,65 L370,65" style="stroke: #C0C0C0; stroke-width: 1; fill: none;"/><path d="M15,74 L370,74" style="stroke: #C0C0C0; stroke-width: 1; fill: none;"/><path d="M15,98 L370,98" style="stroke: #C0C0C0; stroke-width: 1; fill: none;"/><path d="M15,86 L370,86" style="stroke: #C0C0C0; stroke-width: 1; fill: none;"/><path d="M15,93 L370,93" style="stroke: #C0C0C0; stroke-width: 1; fill: none;"/><path d="M15,100 L370,100" style="stroke: #C0C0C0; stroke-width: 1; fill: none;"/><path d="M15,89 L370,89" style="stroke: #C0C0C0; stroke-width: 1; fill: none;"/><path d="M15,95 L370,95" style="stroke: #C0C0C0; stroke-width: 1; fill: none;"/><path d="M15,83 L370,83" style="stroke: #C0C0C0; stroke-width: 1; fill: none;"/><path d="M15,25 L370,25" style="stroke: #C0C0C0; stroke-width: 1; fill: none;"/><path d="M15,47 L370,47" style="stroke: #C0C0C0; stroke-width: 1; fill: none;"/><path d="M15,99 L370,99" style="stroke: #C0C0C0; stroke-width: 1; fill: none;"/><path d="M15,85 L370,85" style="stroke: #C0C0C0; stroke-width: 1; fill: none;"/><path d="M15,91 L370,91" style="stroke: #C0C0C0; stroke-width: 1; fill: none;"/><path d="M15,92 L370,92" style="stroke: #C0C0C0; stroke-width: 1; fill: none;"/><path d="M15,57 L370,57" style="stroke: #C0C0C0; stroke-width: 1; fill: none;"/><path d="M15,71 L370,71" style="stroke: #C0C0C0; stroke-width: 1; fill: none;"/><path d="M15,25 L370,25" style="stroke: #607080; stroke-width: 1; fill: none;"/><text x="375" y="30" style="font-family: Arial; font-size:12px; stroke: #607080;">200</text><path d="M15,105 L370,105" style="stroke: #607080; stroke-width: 1; fill: none;"/><text x="375" y="110" style="font-family: Arial; font-size:12px; stroke: #607080;">0</text><path d="M15,25 L15,105" style="stroke: #607080; stroke-width: 1; fill: none;"/><path d="M86,25 L86,105" style="stroke: #607080; stroke-width: 1; fill: none;"/><path d="M157,25 L157,105" style="stroke: #607080; stroke-width: 1; fill: none;"/><path d="M228,25 L228,105" style="stroke: #607080; stroke-width: 1; fill: none;"/><path d="M299,25 L299,105" style="stroke: #607080; stroke-width: 1; fill: none;"/><path d="M370,25 L370,105" style="stroke: #607080; stroke-width: 1; fill: none;"/><circle cx="15" cy="10" r="8" style="fill:#000000"/><text x="15" y="14" style="font-family: Arial; font-size:10px; fill: #FFFFFF; stroke: #FFFFFF;" text-anchor="middle">1</text><circle cx="86" cy="10" r="8" style="fill:#000000"/><text x="86" y="14" style="font-family: Arial; font-size:10px; fill: #FFFFFF; stroke: #FFFFFF;" text-anchor="middle">2</text><circle cx="157" cy="10" r="8" style="fill:#000000"/><text x="157" y="14" style="font-family: Arial; font-size:10px; fill: #FFFFFF; stroke: #FFFFFF;" text-anchor="middle">3</text><circle cx="228" cy="10" r="8" style="fill:#000000"/><text x="228" y="14" style="font-family: Arial; font-size:10px; fill: #FFFFFF; stroke: #FFFFFF;" text-anchor="middle">4</text><circle cx="299" cy="10" r="8" style="fill:#000000"/><text x="299" y="14" style="font-family: Arial; font-size:10px; fill: #FFFFFF; stroke: #FFFFFF;" text-anchor="middle">5</text><circle cx="370" cy="10" r="8" style="fill:#000000"/><text x="370" y="14" style="font-family: Arial; font-size:10px; fill: #FFFFFF; stroke: #FFFFFF;" text-anchor="middle">6</text><path d="M15,65 L86,86 L157,89 L228,25 L299,85 L370,57 " style="stroke: #974d57; stroke-width: 2; fill: none;"/><circle cx="15" cy="65" r="4" style="fill:#974d57"/><circle cx="86" cy="86" r="4" style="fill:#974d57"/><circle cx="157" cy="89" r="4" style="fill:#974d57"/><circle cx="228" cy="25" r="4" style="fill:#974d57"/><circle cx="299" cy="85" r="4" style="fill:#974d57"/><circle cx="370" cy="57" r="4" style="fill:#974d57"/><path d="M15,96 L86,98 L157,100 L228,83 L299,99 L370,92 " style="stroke: #448541; stroke-width: 2; fill: none;"/><circle cx="15" cy="96" r="4" style="fill:#448541"/><circle cx="86" cy="98" r="4" style="fill:#448541"/><circle cx="157" cy="100" r="4" style="fill:#448541"/><circle cx="228" cy="83" r="4" style="fill:#448541"/><circle cx="299" cy="99" r="4" style="fill:#448541"/><circle cx="370" cy="92" r="4" style="fill:#448541"/><path d="M15,74 L86,93 L157,95 L228,47 L299,91 L370,71 " style="stroke: #0000FF; stroke-width: 2; fill: none;"/><circle cx="15" cy="74" r="4" style="fill:#0000FF"/><circle cx="86" cy="93" r="4" style="fill:#0000FF"/><circle cx="157" cy="95" r="4" style="fill:#0000FF"/><circle cx="228" cy="47" r="4" style="fill:#0000FF"/><circle cx="299" cy="91" r="4" style="fill:#0000FF"/><circle cx="370" cy="71" r="4" style="fill:#0000FF"/><rect x="0" y="150" width="400" height="20" style="stroke-width: 0; fill: #F0F0F0;" /><rect x="0" y="190" width="400" height="20" style="stroke-width: 0; fill: #F0F0F0;" /><rect x="0" y="230" width="400" height="20" style="stroke-width: 0; fill: #F0F0F0;" /><rect x="0" y="125" rx="10" ry="10" width="400" height="160" style="stroke: #C0C0C0; fill: none;" /><rect x="348" y="130" rx="5" ry="5" width="40" height="20" style="stroke: #009900; stroke-width: 1; fill: none;" /><text x="0" y="145" style="font-family: Arial; font-size:12px;"><tspan x="5" style="font-weight: bold;">1.</tspan><tspan x="22">2011.11.17</tspan><tspan x="90">Swarmjam</tspan><tspan x="200" style="fill: #974d57">102</tspan><tspan x="240">-</tspan><tspan x="250" style="fill: #0000FF">78</tspan><tspan x="290">=</tspan><tspan x="300" style="fill: #448541">24</tspan><tspan x="350" style="fill: #0000FF">(76%)</tspan></text><text x="0" y="165" style="font-family: Arial; font-size:12px;"><tspan x="5" style="font-weight: bold;">2.</tspan><tspan x="22">2011.11.18</tspan><tspan x="90">DealTicker</tspan><tspan x="200" style="fill: #974d57">49</tspan><tspan x="240">-</tspan><tspan x="250" style="fill: #0000FF">30</tspan><tspan x="290">=</tspan><tspan x="300" style="fill: #448541">19</tspan><tspan x="350" style="fill: #0000FF">(61%)</tspan></text><rect x="298" y="170" rx="5" ry="5" width="40" height="20" style="stroke: #009900; stroke-width: 1; fill: none;" /><text x="0" y="185" style="font-family: Arial; font-size:12px;"><tspan x="5" style="font-weight: bold;">3.</tspan><tspan x="22">2011.11.18</tspan><tspan x="90">Swarmjam</tspan><tspan x="200" style="fill: #974d57">40</tspan><tspan x="240">-</tspan><tspan x="250" style="fill: #0000FF">26</tspan><tspan x="290">=</tspan><tspan x="300" style="fill: #448541">14</tspan><tspan x="350" style="fill: #0000FF">(65%)</tspan></text><rect x="248" y="190" rx="5" ry="5" width="40" height="20" style="stroke: #009900; stroke-width: 1; fill: none;" /><text x="0" y="205" style="font-family: Arial; font-size:12px;"><tspan x="5" style="font-weight: bold;">4.</tspan><tspan x="22">2011.11.21</tspan><tspan x="90">DealTicker</tspan><tspan x="200" style="fill: #974d57">200</tspan><tspan x="240">-</tspan><tspan x="250" style="fill: #0000FF">145</tspan><tspan x="290">=</tspan><tspan x="300" style="fill: #448541">55</tspan><tspan x="350" style="fill: #0000FF">(72%)</tspan></text><text x="0" y="225" style="font-family: Arial; font-size:12px;"><tspan x="5" style="font-weight: bold;">5.</tspan><tspan x="22">2011.11.22</tspan><tspan x="90">DealTicker</tspan><tspan x="200" style="fill: #974d57">50</tspan><tspan x="240">-</tspan><tspan x="250" style="fill: #0000FF">35</tspan><tspan x="290">=</tspan><tspan x="300" style="fill: #448541">15</tspan><tspan x="350" style="fill: #0000FF">(70%)</tspan></text><text x="0" y="245" style="font-family: Arial; font-size:12px;"><tspan x="5" style="font-weight: bold;">6.</tspan><tspan x="22">2011.11.24</tspan><tspan x="90">DealTicker</tspan><tspan x="200" style="fill: #974d57">120</tspan><tspan x="240">-</tspan><tspan x="250" style="fill: #0000FF">86</tspan><tspan x="290">=</tspan><tspan x="300" style="fill: #448541">34</tspan><tspan x="350" style="fill: #0000FF">(71%)</tspan></text><line x1="0" y1="255" x2="400" y2="255" style="stroke: #C0C0C0;" /><text x="0" y="275" style="font-family: Arial; font-size:12px; font-weight: bold;"><tspan x="20" style="font-weight: bold;">=</tspan><tspan x="200" style="fill: #974d57">93</tspan><tspan x="240">-</tspan><tspan x="250" style="fill: #0000FF">67</tspan><tspan x="290">=</tspan><tspan x="300" style="fill: #448541">26</tspan><tspan x="350" style="fill: #0000FF">(72%)</tspan></text><image width="11" height="12" x="5" y="263" xlink:href="/IF/Avg.png" /></svg>