<svg xmlns="http://www.w3.org/2000/svg" xmlns:xlink="http://www.w3.org/1999/xlink" width="400" height="235"><path d="M15,69 L369,69" style="stroke: #C0C0C0; stroke-width: 1; fill: none;"/><path d="M15,25 L369,25" style="stroke: #C0C0C0; stroke-width: 1; fill: none;"/><path d="M15,62 L369,62" style="stroke: #C0C0C0; stroke-width: 1; fill: none;"/><path d="M15,93 L369,93" style="stroke: #C0C0C0; stroke-width: 1; fill: none;"/><path d="M15,74 L369,74" style="stroke: #C0C0C0; stroke-width: 1; fill: none;"/><path d="M15,87 L369,87" style="stroke: #C0C0C0; stroke-width: 1; fill: none;"/><path d="M15,79 L369,79" style="stroke: #C0C0C0; stroke-width: 1; fill: none;"/><path d="M15,52 L369,52" style="stroke: #C0C0C0; stroke-width: 1; fill: none;"/><path d="M15,79 L369,79" style="stroke: #C0C0C0; stroke-width: 1; fill: none;"/><path d="M15,25 L369,25" style="stroke: #607080; stroke-width: 1; fill: none;"/><text x="375" y="30" style="font-family: Arial; font-size:12px; stroke: #607080;">90</text><path d="M15,105 L369,105" style="stroke: #607080; stroke-width: 1; fill: none;"/><text x="375" y="110" style="font-family: Arial; font-size:12px; stroke: #607080;">0</text><path d="M15,25 L15,105" style="stroke: #607080; stroke-width: 1; fill: none;"/><path d="M192,25 L192,105" style="stroke: #607080; stroke-width: 1; fill: none;"/><path d="M369,25 L369,105" style="stroke: #607080; stroke-width: 1; fill: none;"/><circle cx="15" cy="10" r="10" style="fill:#000000"/><text x="15" y="15" style="font-family: Arial; font-size:12px; fill: #FFFFFF; stroke: #FFFFFF;" text-anchor="middle">1</text><circle cx="192" cy="10" r="10" style="fill:#000000"/><text x="192" y="15" style="font-family: Arial; font-size:12px; fill: #FFFFFF; stroke: #FFFFFF;" text-anchor="middle">2</text><circle cx="369" cy="10" r="10" style="fill:#000000"/><text x="369" y="15" style="font-family: Arial; font-size:12px; fill: #FFFFFF; stroke: #FFFFFF;" text-anchor="middle">3</text><path d="M15,25 L192,74 L369,52 " style="stroke: #974d57; stroke-width: 2; fill: none;"/><circle cx="15" cy="25" r="4" style="fill:#974d57"/><circle cx="192" cy="74" r="4" style="fill:#974d57"/><circle cx="369" cy="52" r="4" style="fill:#974d57"/><path d="M15,69 L192,93 L369,79 " style="stroke: #448541; stroke-width: 2; fill: none;"/><circle cx="15" cy="69" r="4" style="fill:#448541"/><circle cx="192" cy="93" r="4" style="fill:#448541"/><circle cx="369" cy="79" r="4" style="fill:#448541"/><path d="M15,62 L192,87 L369,79 " style="stroke: #0000FF; stroke-width: 2; fill: none;"/><circle cx="15" cy="62" r="4" style="fill:#0000FF"/><circle cx="192" cy="87" r="4" style="fill:#0000FF"/><circle cx="369" cy="79" r="4" style="fill:#0000FF"/><rect x="0" y="150" width="400" height="20" style="stroke-width: 0; fill: #F0F0F0;" /><rect x="0" y="125" rx="10" ry="10" width="400" height="100" style="stroke: #C0C0C0; fill: none;" /><rect x="248" y="130" rx="5" ry="5" width="40" height="20" style="stroke: #009900; stroke-width: 1; fill: none;" /><text x="0" y="145" style="font-family: Arial; font-size:12px;"><tspan x="5" style="font-weight: bold;">1.</tspan><tspan x="22">2011.09.06</tspan><tspan x="90">WagJag</tspan><tspan x="200" style="fill: #974d57">90</tspan><tspan x="240">-</tspan><tspan x="250" style="fill: #0000FF">49</tspan><tspan x="290">=</tspan><tspan x="300" style="fill: #448541">41</tspan><tspan x="350" style="fill: #0000FF">(54%)</tspan></text><rect x="298" y="150" rx="5" ry="5" width="40" height="20" style="stroke: #009900; stroke-width: 1; fill: none;" /><rect x="348" y="150" rx="5" ry="5" width="40" height="20" style="stroke: #009900; stroke-width: 1; fill: none;" /><text x="0" y="165" style="font-family: Arial; font-size:12px;"><tspan x="5" style="font-weight: bold;">2.</tspan><tspan x="22">2011.09.06</tspan><tspan x="90">WagJag</tspan><tspan x="200" style="fill: #974d57">35</tspan><tspan x="240">-</tspan><tspan x="250" style="fill: #0000FF">21</tspan><tspan x="290">=</tspan><tspan x="300" style="fill: #448541">14</tspan><tspan x="350" style="fill: #0000FF">(60%)</tspan></text><text x="0" y="185" style="font-family: Arial; font-size:12px;"><tspan x="5" style="font-weight: bold;">3.</tspan><tspan x="22">2011.09.07</tspan><tspan x="90">WagJag</tspan><tspan x="200" style="fill: #974d57">60</tspan><tspan x="240">-</tspan><tspan x="250" style="fill: #0000FF">30</tspan><tspan x="290">=</tspan><tspan x="300" style="fill: #448541">30</tspan><tspan x="350" style="fill: #0000FF">(50%)</tspan></text><line x1="0" y1="195" x2="400" y2="195" style="stroke: #C0C0C0;" /><text x="0" y="215" style="font-family: Arial; font-size:12px; font-weight: bold;"><tspan x="20" style="font-weight: bold;">=</tspan><tspan x="200" style="fill: #974d57">61</tspan><tspan x="240">-</tspan><tspan x="250" style="fill: #0000FF">33</tspan><tspan x="290">=</tspan><tspan x="300" style="fill: #448541">28</tspan><tspan x="350" style="fill: #0000FF">(54%)</tspan></text><image width="11" height="12" x="5" y="203" xlink:href="/IF/Avg.png" /></svg>