<svg xmlns="http://www.w3.org/2000/svg" xmlns:xlink="http://www.w3.org/1999/xlink" width="400" height="235"><path d="M15,66 L369,66" style="stroke: #C0C0C0; stroke-width: 1; fill: none;"/><path d="M15,25 L369,25" style="stroke: #C0C0C0; stroke-width: 1; fill: none;"/><path d="M15,65 L369,65" style="stroke: #C0C0C0; stroke-width: 1; fill: none;"/><path d="M15,70 L369,70" style="stroke: #C0C0C0; stroke-width: 1; fill: none;"/><path d="M15,51 L369,51" style="stroke: #C0C0C0; stroke-width: 1; fill: none;"/><path d="M15,87 L369,87" style="stroke: #C0C0C0; stroke-width: 1; fill: none;"/><path d="M15,78 L369,78" style="stroke: #C0C0C0; stroke-width: 1; fill: none;"/><path d="M15,50 L369,50" style="stroke: #C0C0C0; stroke-width: 1; fill: none;"/><path d="M15,78 L369,78" style="stroke: #C0C0C0; stroke-width: 1; fill: none;"/><path d="M15,25 L369,25" style="stroke: #607080; stroke-width: 1; fill: none;"/><text x="375" y="30" style="font-family: Arial; font-size:12px; stroke: #607080;">200</text><path d="M15,105 L369,105" style="stroke: #607080; stroke-width: 1; fill: none;"/><text x="375" y="110" style="font-family: Arial; font-size:12px; stroke: #607080;">0</text><path d="M15,25 L15,105" style="stroke: #607080; stroke-width: 1; fill: none;"/><path d="M192,25 L192,105" style="stroke: #607080; stroke-width: 1; fill: none;"/><path d="M369,25 L369,105" style="stroke: #607080; stroke-width: 1; fill: none;"/><circle cx="15" cy="10" r="8" style="fill:#000000"/><text x="15" y="14" style="font-family: Arial; font-size:10px; fill: #FFFFFF; stroke: #FFFFFF;" text-anchor="middle">1</text><circle cx="192" cy="10" r="8" style="fill:#000000"/><text x="192" y="14" style="font-family: Arial; font-size:10px; fill: #FFFFFF; stroke: #FFFFFF;" text-anchor="middle">2</text><circle cx="369" cy="10" r="8" style="fill:#000000"/><text x="369" y="14" style="font-family: Arial; font-size:10px; fill: #FFFFFF; stroke: #FFFFFF;" text-anchor="middle">3</text><path d="M15,25 L192,51 L369,50 " style="stroke: #974d57; stroke-width: 2; fill: none;"/><circle cx="15" cy="25" r="4" style="fill:#974d57"/><circle cx="192" cy="51" r="4" style="fill:#974d57"/><circle cx="369" cy="50" r="4" style="fill:#974d57"/><path d="M15,66 L192,70 L369,78 " style="stroke: #448541; stroke-width: 2; fill: none;"/><circle cx="15" cy="66" r="4" style="fill:#448541"/><circle cx="192" cy="70" r="4" style="fill:#448541"/><circle cx="369" cy="78" r="4" style="fill:#448541"/><path d="M15,65 L192,87 L369,78 " style="stroke: #0000FF; stroke-width: 2; fill: none;"/><circle cx="15" cy="65" r="4" style="fill:#0000FF"/><circle cx="192" cy="87" r="4" style="fill:#0000FF"/><circle cx="369" cy="78" r="4" style="fill:#0000FF"/><rect x="0" y="150" width="400" height="20" style="stroke-width: 0; fill: #F0F0F0;" /><rect x="0" y="125" rx="10" ry="10" width="400" height="100" style="stroke: #C0C0C0; fill: none;" /><rect x="248" y="130" rx="5" ry="5" width="40" height="20" style="stroke: #009900; stroke-width: 1; fill: none;" /><rect x="348" y="130" rx="5" ry="5" width="40" height="20" style="stroke: #009900; stroke-width: 1; fill: none;" /><text x="0" y="145" style="font-family: Arial; font-size:12px;"><tspan x="5" style="font-weight: bold;">1.</tspan><tspan x="22">2011.09.19</tspan><tspan x="90">WagJag</tspan><tspan x="200" style="fill: #974d57">200</tspan><tspan x="240">-</tspan><tspan x="250" style="fill: #0000FF">101</tspan><tspan x="290">=</tspan><tspan x="300" style="fill: #448541">99</tspan><tspan x="350" style="fill: #0000FF">(50%)</tspan></text><text x="0" y="165" style="font-family: Arial; font-size:12px;"><tspan x="5" style="font-weight: bold;">2.</tspan><tspan x="22">2011.09.19</tspan><tspan x="90">WagJag</tspan><tspan x="200" style="fill: #974d57">135</tspan><tspan x="240">-</tspan><tspan x="250" style="fill: #0000FF">46</tspan><tspan x="290">=</tspan><tspan x="300" style="fill: #448541">89</tspan><tspan x="350" style="fill: #0000FF">(34%)</tspan></text><rect x="298" y="170" rx="5" ry="5" width="40" height="20" style="stroke: #009900; stroke-width: 1; fill: none;" /><rect x="348" y="170" rx="5" ry="5" width="40" height="20" style="stroke: #009900; stroke-width: 1; fill: none;" /><text x="0" y="185" style="font-family: Arial; font-size:12px;"><tspan x="5" style="font-weight: bold;">3.</tspan><tspan x="22">2011.09.21</tspan><tspan x="90">WagJag</tspan><tspan x="200" style="fill: #974d57">138</tspan><tspan x="240">-</tspan><tspan x="250" style="fill: #0000FF">69</tspan><tspan x="290">=</tspan><tspan x="300" style="fill: #448541">69</tspan><tspan x="350" style="fill: #0000FF">(50%)</tspan></text><line x1="0" y1="195" x2="400" y2="195" style="stroke: #C0C0C0;" /><text x="0" y="215" style="font-family: Arial; font-size:12px; font-weight: bold;"><tspan x="20" style="font-weight: bold;">=</tspan><tspan x="200" style="fill: #974d57">157</tspan><tspan x="240">-</tspan><tspan x="250" style="fill: #0000FF">72</tspan><tspan x="290">=</tspan><tspan x="300" style="fill: #448541">85</tspan><tspan x="350" style="fill: #0000FF">(45%)</tspan></text><image width="11" height="12" x="5" y="203" xlink:href="/IF/Avg.png" /></svg>