<svg xmlns="http://www.w3.org/2000/svg" xmlns:xlink="http://www.w3.org/1999/xlink" width="400" height="215"><path d="M15,103 L370,103" style="stroke: #C0C0C0; stroke-width: 1; fill: none;"/><path d="M15,25 L370,25" style="stroke: #C0C0C0; stroke-width: 1; fill: none;"/><path d="M15,28 L370,28" style="stroke: #C0C0C0; stroke-width: 1; fill: none;"/><path d="M15,104 L370,104" style="stroke: #C0C0C0; stroke-width: 1; fill: none;"/><path d="M15,57 L370,57" style="stroke: #C0C0C0; stroke-width: 1; fill: none;"/><path d="M15,59 L370,59" style="stroke: #C0C0C0; stroke-width: 1; fill: none;"/><path d="M15,25 L370,25" style="stroke: #607080; stroke-width: 1; fill: none;"/><text x="375" y="30" style="font-family: Arial; font-size:12px; stroke: #607080;">10080</text><path d="M15,105 L370,105" style="stroke: #607080; stroke-width: 1; fill: none;"/><text x="375" y="110" style="font-family: Arial; font-size:12px; stroke: #607080;">0</text><path d="M15,25 L15,105" style="stroke: #607080; stroke-width: 1; fill: none;"/><path d="M370,25 L370,105" style="stroke: #607080; stroke-width: 1; fill: none;"/><circle cx="15" cy="10" r="10" style="fill:#000000"/><text x="15" y="15" style="font-family: Arial; font-size:12px; fill: #FFFFFF; stroke: #FFFFFF;" text-anchor="middle">1</text><circle cx="370" cy="10" r="10" style="fill:#000000"/><text x="370" y="15" style="font-family: Arial; font-size:12px; fill: #FFFFFF; stroke: #FFFFFF;" text-anchor="middle">2</text><path d="M15,25 L370,57 " style="stroke: #974d57; stroke-width: 2; fill: none;"/><circle cx="15" cy="25" r="4" style="fill:#974d57"/><circle cx="370" cy="57" r="4" style="fill:#974d57"/><path d="M15,103 L370,104 " style="stroke: #448541; stroke-width: 2; fill: none;"/><circle cx="15" cy="103" r="4" style="fill:#448541"/><circle cx="370" cy="104" r="4" style="fill:#448541"/><path d="M15,28 L370,59 " style="stroke: #0000FF; stroke-width: 2; fill: none;"/><circle cx="15" cy="28" r="4" style="fill:#0000FF"/><circle cx="370" cy="59" r="4" style="fill:#0000FF"/><rect x="0" y="150" width="400" height="20" style="stroke-width: 0; fill: #F0F0F0;" /><rect x="0" y="125" rx="10" ry="10" width="400" height="80" style="stroke: #C0C0C0; fill: none;" /><rect x="248" y="130" rx="5" ry="5" width="40" height="20" style="stroke: #009900; stroke-width: 1; fill: none;" /><rect x="348" y="130" rx="5" ry="5" width="40" height="20" style="stroke: #009900; stroke-width: 1; fill: none;" /><text x="0" y="145" style="font-family: Arial; font-size:12px;"><tspan x="5" style="font-weight: bold;">1.</tspan><tspan x="22">2011.08.15</tspan><tspan x="90">Dealfind</tspan><tspan x="200" style="fill: #974d57">10080</tspan><tspan x="240">-</tspan><tspan x="250" style="fill: #0000FF">9801</tspan><tspan x="290">=</tspan><tspan x="300" style="fill: #448541">279</tspan><tspan x="350" style="fill: #0000FF">(97%)</tspan></text><rect x="298" y="150" rx="5" ry="5" width="40" height="20" style="stroke: #009900; stroke-width: 1; fill: none;" /><rect x="348" y="150" rx="5" ry="5" width="40" height="20" style="stroke: #009900; stroke-width: 1; fill: none;" /><text x="0" y="165" style="font-family: Arial; font-size:12px;"><tspan x="5" style="font-weight: bold;">2.</tspan><tspan x="22">2011.09.06</tspan><tspan x="90">DealTicker</tspan><tspan x="200" style="fill: #974d57">6048</tspan><tspan x="240">-</tspan><tspan x="250" style="fill: #0000FF">5899</tspan><tspan x="290">=</tspan><tspan x="300" style="fill: #448541">149</tspan><tspan x="350" style="fill: #0000FF">(97%)</tspan></text><line x1="0" y1="175" x2="400" y2="175" style="stroke: #C0C0C0;" /><text x="0" y="195" style="font-family: Arial; font-size:12px; font-weight: bold;"><tspan x="20" style="font-weight: bold;">=</tspan><tspan x="200" style="fill: #974d57">8064</tspan><tspan x="240">-</tspan><tspan x="250" style="fill: #0000FF">7850</tspan><tspan x="290">=</tspan><tspan x="300" style="fill: #448541">214</tspan><tspan x="350" style="fill: #0000FF">(97%)</tspan></text><image width="11" height="12" x="5" y="183" xlink:href="/IF/Avg.png" /></svg>